<?xml version="1.0" standalone="no"?>
<!DOCTYPE svg PUBLIC "-//W3C//DTD SVG 20010904//EN"
 "http://www.w3.org/TR/2001/REC-SVG-20010904/DTD/svg10.dtd">
<svg version="1.0" xmlns="http://www.w3.org/2000/svg"
 width="400.000000pt" height="400.000000pt" viewBox="0 0 400.000000 400.000000"
 preserveAspectRatio="xMidYMid meet">

<g transform="translate(0.000000,400.000000) scale(0.100000,-0.100000)"
fill="#000000" stroke="none">
<path d="M2879 3827 c-137 -47 -227 -141 -269 -284 -7 -24 -15 -43 -17 -43 -2
0 -26 11 -53 25 -146 74 -271 105 -451 112 -170 7 -266 -5 -401 -47 -709 -223
-1019 -1064 -626 -1698 66 -105 214 -263 312 -330 354 -246 795 -278 1179 -86
254 127 460 362 560 639 47 131 62 227 61 390 -1 155 -15 240 -62 376 l-20 56
52 40 c194 152 286 298 286 451 -1 289 -281 491 -551 399z m285 -77 c151 -72
232 -241 192 -400 -30 -116 -132 -240 -291 -351 -104 -73 -225 -141 -240 -135
-16 6 -97 199 -131 311 -35 119 -44 288 -20 363 70 209 294 306 490 212z
m-1164 -410 l0 -210 -220 0 c-121 0 -220 2 -220 5 0 3 23 54 50 113 52 109
129 240 154 261 12 10 158 38 214 40 l22 1 0 -210z m165 200 c39 -6 92 -15
119 -21 48 -12 49 -12 87 -94 21 -45 54 -128 73 -186 l35 -104 -201 -3 c-110
-1 -204 0 -207 4 -8 8 -14 339 -6 380 7 38 4 37 100 24z m-523 -92 c-50 -86
-72 -130 -107 -213 -21 -49 -41 -94 -45 -98 -4 -4 -71 -6 -151 -5 l-144 3 83
87 c92 96 193 170 303 223 40 19 75 35 77 35 2 0 -5 -15 -16 -32z m878 -21
c67 -35 80 -51 80 -96 0 -31 20 -130 36 -183 5 -16 -2 -18 -44 -18 l-49 0 -22
78 c-13 42 -38 115 -57 161 -19 47 -34 88 -34 93 0 10 22 1 90 -35z m-1050
-370 c0 -2 -7 -23 -15 -48 -25 -77 -55 -250 -63 -364 l-7 -110 -200 0 -200 0
3 45 c9 128 57 294 120 413 l36 67 163 0 c90 0 163 -1 163 -3z m530 -262 l0
-265 -275 0 -275 0 0 43 c0 101 30 288 67 425 l18 62 232 0 233 0 0 -265z
m513 173 c23 -125 34 -213 43 -335 l7 -103 -246 0 c-219 0 -246 2 -251 17 -4
9 -6 128 -6 265 l1 248 218 0 217 0 17 -92z m185 9 c18 -45 45 -104 60 -132
37 -68 62 -70 166 -10 44 25 83 42 87 38 22 -25 69 -232 69 -304 l0 -39 -230
0 -230 0 0 63 c0 99 -34 372 -56 450 -5 15 2 17 48 17 l53 0 33 -83z m-1306
-627 c9 -146 36 -303 74 -423 5 -16 -5 -17 -151 -15 l-157 3 -44 80 c-51 93
-99 232 -113 325 -17 115 -20 138 -13 144 3 4 94 5 201 4 l196 -3 7 -115z
m608 -160 l0 -280 -232 2 -232 3 -13 45 c-38 128 -73 348 -73 458 l0 52 275 0
275 0 0 -280z m556 168 c-7 -119 -28 -282 -49 -383 l-13 -60 -217 -3 -218 -2
1 252 c1 139 4 265 7 281 l5 27 246 0 245 0 -7 -112z m524 65 c-1 -118 -57
-305 -133 -440 l-41 -73 -173 0 c-95 0 -173 2 -173 4 0 2 7 40 15 83 22 110
45 316 45 394 0 36 3 69 7 72 3 4 107 7 230 7 l223 0 0 -47z m-1561 -645 c13
-35 45 -105 72 -155 28 -54 44 -93 36 -93 -20 0 -157 78 -217 123 -69 52 -146
123 -172 159 l-19 28 138 0 138 0 24 -62z m481 -133 l0 -195 -37 0 c-21 0 -78
7 -127 16 l-88 16 -40 62 c-35 54 -125 231 -141 279 -6 16 8 17 213 17 l220 0
0 -195z m465 163 c-10 -46 -73 -213 -101 -270 -20 -39 -31 -49 -61 -57 -66
-17 -155 -31 -199 -31 l-41 0 -2 195 -2 195 206 0 207 0 -7 -32z m351 -10
c-53 -62 -133 -130 -211 -180 -76 -49 -148 -88 -164 -88 -5 0 3 31 19 70 16
38 40 108 55 155 l26 85 155 0 156 0 -36 -42z"/>
<path d="M2932 3668 c-19 -6 -55 -31 -82 -55 -55 -50 -80 -108 -80 -187 1
-200 247 -310 400 -178 169 144 78 416 -143 428 -34 2 -77 -2 -95 -8z m131
-59 c90 -25 151 -128 128 -216 -21 -77 -101 -142 -174 -143 -65 0 -146 55
-173 119 -37 89 9 193 106 235 42 18 63 19 113 5z"/>
<path d="M554 1451 c-101 -46 -158 -136 -157 -251 1 -169 137 -273 427 -325
74 -13 100 -15 109 -6 16 16 21 202 8 289 -24 151 -80 244 -176 288 -63 30
-152 32 -211 5z m213 -143 c27 -27 36 -46 40 -82 l6 -46 -117 0 c-96 0 -116
-3 -116 -15 0 -8 9 -24 20 -35 23 -23 117 -29 138 -8 10 10 17 8 33 -9 26 -25
19 -40 -27 -59 -122 -51 -253 34 -242 158 9 93 71 142 171 135 51 -3 62 -8 94
-39z"/>
<path d="M600 1270 c-40 -40 -27 -50 64 -50 80 0 84 1 79 20 -13 49 -105 68
-143 30z"/>
<path d="M1500 1060 c-28 -28 -26 -75 5 -105 70 -70 182 31 115 103 -27 29
-92 30 -120 2z"/>
<path d="M3060 890 l0 -60 -45 0 c-43 0 -45 -1 -45 -30 0 -29 2 -30 45 -30
l45 0 0 -167 c0 -185 9 -233 49 -273 43 -43 157 -52 207 -16 24 18 12 72 -14
60 -9 -4 -38 -9 -64 -12 -40 -3 -51 0 -73 22 -25 25 -25 25 -25 206 l0 180 80
0 80 0 0 30 0 30 -80 0 -80 0 0 60 0 60 -40 0 -40 0 0 -60z"/>
<path d="M1085 837 c-98 -33 -140 -87 -133 -174 7 -80 46 -115 154 -138 156
-33 169 -38 172 -67 2 -18 -4 -31 -20 -42 -33 -23 -144 -21 -215 4 -32 11 -61
20 -65 20 -6 0 -48 -76 -48 -87 0 -1 17 -12 39 -22 95 -49 280 -47 367 4 94
55 100 195 11 241 -17 10 -79 28 -136 41 -57 13 -110 28 -118 34 -7 6 -13 24
-13 39 0 61 126 74 251 25 12 -4 22 6 38 39 11 25 21 48 21 50 0 2 -21 12 -47
21 -64 22 -206 29 -258 12z"/>
<path d="M1492 573 l3 -268 63 -3 62 -3 0 271 0 270 -65 0 -65 0 2 -267z"/>
<path d="M1896 825 c-186 -66 -227 -330 -70 -449 83 -63 208 -73 303 -23 l51
26 0 -37 c0 -44 -28 -94 -67 -119 -57 -37 -228 -17 -285 34 -15 13 -19 10 -42
-30 -14 -24 -26 -49 -26 -56 0 -20 102 -60 184 -72 161 -22 284 24 335 126 26
50 26 52 29 333 l3 282 -60 0 -61 0 0 -36 0 -36 -30 26 c-17 14 -47 30 -68 36
-52 14 -149 12 -196 -5z m222 -117 c42 -26 62 -65 62 -125 0 -65 -28 -109 -87
-135 -154 -68 -306 92 -212 223 48 68 158 85 237 37z"/>
<path d="M2544 822 c-55 -19 -104 -48 -104 -60 0 -5 6 -17 14 -27 14 -19 15
-19 53 2 45 25 87 35 149 35 90 0 138 -42 138 -122 l1 -45 -140 -6 c-77 -3
-141 -7 -142 -8 -1 0 -18 -15 -38 -32 -85 -75 -55 -214 54 -251 57 -19 161
-13 209 11 22 11 43 25 47 31 13 21 27 9 23 -20 -4 -29 -3 -30 34 -30 l38 0 0
186 c0 215 -7 250 -61 299 -63 57 -174 72 -275 37z m256 -328 c0 -50 -4 -60
-33 -89 -90 -90 -267 -59 -267 47 0 38 28 75 63 82 12 3 31 7 42 9 11 3 59 5
108 6 l87 1 0 -56z"/>
</g>
</svg>
